HIERARCHY
ROOT Pelvis
{
	OFFSET 0.000000 0.000000 0.000000
	CHANNELS 6 Xposition Yposition Zposition Zrotation Yrotation Xrotation 
	JOINT Left_hip
	{
		OFFSET 0.067986 -0.089946 -0.007639
		CHANNELS 3 Zrotation Yrotation Xrotation
		JOINT Left_knee
		{
			OFFSET 0.036308 -0.388288 -0.004016
			CHANNELS 3 Zrotation Yrotation Xrotation
			JOINT Left_ankle
			{
				OFFSET -0.012264 -0.413250 -0.042878
				CHANNELS 3 Zrotation Yrotation Xrotation
				JOINT Left_foot
				{
					OFFSET 0.024043 -0.058563 0.118570
					CHANNELS 3 Zrotation Yrotation Xrotation
					End Site
					{
						OFFSET 0.000000 0.000000 0.000000
					}
				}
			}
		}
	}
	JOINT Right_hip
	{
		OFFSET -0.065648 -0.089374 -0.003858
		CHANNELS 3 Zrotation Yrotation Xrotation
		JOINT Right_knee
		{
			OFFSET -0.042132 -0.395021 -0.006361
			CHANNELS 3 Zrotation Yrotation Xrotation
			JOINT Right_ankle
			{
				OFFSET 0.014805 -0.413264 -0.041054
				CHANNELS 3 Zrotation Yrotation Xrotation
				JOINT Right_foot
				{
					OFFSET -0.021758 -0.049013 0.121832
					CHANNELS 3 Zrotation Yrotation Xrotation
					End Site
					{
						OFFSET 0.000000 0.000000 0.000000
					}
				}
			}
		}
	}
	JOINT Spine1
	{
		OFFSET -0.002755 0.104406 -0.022277
		CHANNELS 3 Zrotation Yrotation Xrotation
		JOINT Spine2
		{
			OFFSET 0.004136 0.129393 -0.002186
			CHANNELS 3 Zrotation Yrotation Xrotation
			JOINT Spine3
			{
				OFFSET 0.001906 0.049304 0.025578
				CHANNELS 3 Zrotation Yrotation Xrotation
				JOINT Neck
				{
					OFFSET -0.004620 0.210958 -0.044063
					CHANNELS 3 Zrotation Yrotation Xrotation
					JOINT Head
					{
						OFFSET 0.003833 0.067393 0.052435
						CHANNELS 3 Zrotation Yrotation Xrotation
						End Site
						{
							OFFSET 0.000000 0.000000 0.000000
						}
					}
				}
				JOINT Left_collar
				{
					OFFSET 0.070771 0.116689 -0.037192
					CHANNELS 3 Zrotation Yrotation Xrotation
					JOINT Left_shoulder
					{
						OFFSET 0.080652 0.031596 -0.005617
						CHANNELS 3 Zrotation Yrotation Xrotation
						JOINT Left_elbow
						{
							OFFSET 0.262654 -0.015020 -0.027939
							CHANNELS 3 Zrotation Yrotation Xrotation
							JOINT Left_wrist
							{
								OFFSET 0.250438 0.010062 -0.000990
								CHANNELS 3 Zrotation Yrotation Xrotation
								JOINT Left_palm
								{
									OFFSET 0.081198 -0.010037 -0.013706
									CHANNELS 3 Zrotation Yrotation Xrotation
									End Site
									{
										OFFSET 0.000000 0.000000 0.000000
									}
								}
							}
						}
					}
				}
				JOINT Right_collar
				{
					OFFSET -0.072972 0.115556 -0.040762
					CHANNELS 3 Zrotation Yrotation Xrotation
					JOINT Right_shoulder
					{
						OFFSET -0.082917 0.031841 -0.006673
						CHANNELS 3 Zrotation Yrotation Xrotation
						JOINT Right_elbow
						{
							OFFSET -0.252882 -0.013790 -0.020410
							CHANNELS 3 Zrotation Yrotation Xrotation
							JOINT Right_wrist
							{
								OFFSET -0.255570 0.009163 -0.005138
								CHANNELS 3 Zrotation Yrotation Xrotation
								JOINT Right_palm
								{
									OFFSET -0.080804 -0.007282 -0.010415
									CHANNELS 3 Zrotation Yrotation Xrotation
									End Site
									{
										OFFSET 0.000000 0.000000 0.000000
									}
								}
							}
						}
					}
				}
			}
		}
	}
}
MOTION
Frames: 15
Frame Time: 0.100000
-0.084827 -0.058404 0.296115 165.748881 59.434280 -23.233399 11.188275 6.396553 -6.250216 -6.485654 -11.550342 13.591192 -6.725256 5.730745 -4.390863 7.972470 6.755559 -10.249772 -2.075989 -5.153789 1.202587 7.507140 1.344121 1.549337 -1.546254 -8.113941 -11.135470 2.129338 -1.383735 12.628847 3.608178 2.594008 9.094984 5.221950 -4.342049 14.451945 1.662980 0.433799 -0.508253 -4.431513 3.525095 19.686568 -5.031811 -1.029121 -0.878524 -21.861786 -0.221594 1.167929 -50.020256 -10.464502 15.219714 -4.499045 -30.646145 13.788095 -6.047656 -7.377013 13.589152 -15.614837 -7.920412 -12.695551 24.008686 6.352359 1.070872 37.515912 5.206212 6.733284 -1.816372 20.625010 1.596629 4.436055 5.869674 9.316080 17.177462 7.284976 -4.898789 
-0.088735 -0.057407 0.298216 165.890899 57.144013 -22.248545 10.304613 6.158512 -3.183449 -4.187637 -13.493451 2.229409 -6.403390 4.625386 -3.419143 7.285477 7.768514 -8.341430 -1.268659 -4.361228 0.483745 7.591430 1.373050 1.360789 -1.285430 -7.067357 -11.500337 3.005753 -2.301037 13.896871 3.955637 2.118958 8.648842 5.479928 -4.156452 14.402340 1.806041 0.464221 -0.812526 -4.075126 4.551193 20.256993 -5.207096 -1.104390 -1.591013 -21.512171 -0.487236 0.641880 -50.779866 -9.399183 15.789241 -2.806374 -30.973579 12.725428 -6.903332 -7.700143 12.968601 -15.733556 -8.092198 -13.329348 23.985931 6.520194 1.007709 38.525061 4.689440 8.202884 -3.838529 25.340531 1.522634 4.917802 6.811719 7.596141 17.151389 6.857369 -5.265770 
-0.092786 -0.056730 0.298027 166.717991 55.616527 -19.570930 9.165249 4.476885 -4.585696 -2.411623 -11.724520 1.340358 -4.826917 4.573859 0.143262 4.182176 8.746053 -7.171990 -1.154338 -3.568737 -2.788581 7.152918 1.016962 3.403263 -2.271890 -6.632652 -9.538131 5.796242 -3.027939 12.853360 3.432894 1.641879 7.544244 5.731259 -4.497776 15.378595 1.643799 0.753373 -3.746240 -6.328089 2.469328 19.892029 -3.641528 1.954832 0.462648 -22.491336 -1.120847 1.744748 -49.190312 -8.590955 18.794764 -1.836877 -32.393168 13.570237 -2.500514 -2.170337 4.341098 -17.834209 -10.797344 -12.594494 25.140498 4.765083 2.119801 37.531090 6.414065 8.447528 -2.062307 30.959461 3.232240 -0.467998 3.823889 9.535614 21.791980 10.526503 -8.099788 
-0.099087 -0.057170 0.294169 168.171840 52.785728 -18.518994 9.018656 4.787371 -5.110453 -3.056199 -10.124052 4.470335 -4.047041 5.138105 -0.589225 3.598755 8.789235 -8.127922 -1.369450 -3.182061 -3.583146 7.012396 1.951462 5.240370 -0.965407 -5.731679 -9.616610 3.715412 -2.427869 11.671908 3.351633 1.715981 8.194282 5.317434 -4.352112 14.929142 1.424559 0.941535 -3.313334 -6.552026 2.458945 19.677016 -2.960982 2.061221 0.331578 -21.588302 -1.705144 1.832218 -49.564429 -8.307765 18.041649 -1.204172 -33.233562 13.510874 -3.090611 -2.251974 4.199373 -17.592652 -10.619279 -12.867164 24.082250 5.488872 2.406160 39.277132 7.090866 8.534603 -2.000975 34.682269 4.072891 -0.278522 4.285796 8.901075 21.572005 9.980195 -7.949230 
-0.107964 -0.056189 0.288698 168.795450 50.439683 -18.596115 9.075052 4.770461 -6.504410 -4.160768 -8.971717 9.962846 -3.605866 5.830781 -2.034251 3.399638 8.473381 -9.200703 -1.778589 -2.955407 -3.148821 7.154291 3.224241 5.937121 0.004628 -5.021791 -9.662137 2.207626 -1.788487 10.608296 3.379843 1.874232 8.732715 5.288089 -4.580882 14.705340 1.476283 1.017939 -2.976631 -7.055973 1.875745 19.581521 -2.272430 2.492384 0.372470 -21.063498 -2.059731 2.381343 -50.074576 -8.530328 16.919711 -0.955382 -34.151053 13.319963 -3.058366 -2.190119 3.481276 -17.411900 -10.442775 -12.664996 23.140211 5.729546 2.816987 39.311937 7.677540 7.776264 -0.183432 36.689046 6.659360 -0.216694 4.592020 10.297401 21.458845 9.849221 -7.722899 
-0.118218 -0.055179 0.280365 169.537005 47.946033 -18.712608 9.299637 3.710301 -8.599622 -5.714367 -9.629478 16.923675 -3.726682 5.794343 -2.797995 3.410284 7.803368 -10.696064 -2.446125 -2.812451 -2.380769 7.309732 4.848122 6.001240 1.208926 -4.717329 -9.396317 -0.026266 -0.603146 9.305995 3.126835 2.485985 9.376761 5.249342 -4.795715 14.616807 1.631205 1.195819 -2.717825 -7.776303 1.119283 18.663199 -0.746595 2.776868 0.581802 -20.649575 -2.495041 3.191543 -49.923785 -9.455262 15.492187 -1.486410 -34.341825 13.836330 -2.996070 -2.301994 3.310769 -17.089252 -10.208887 -12.214341 22.575473 5.767286 3.486225 39.406806 7.818116 5.895533 0.612392 36.352566 7.209674 -0.280767 4.733644 12.228696 21.304576 9.975230 -7.169720 
-0.132015 -0.053439 0.269979 170.314404 44.607781 -18.822504 9.922988 1.198926 -8.113304 -7.342849 -14.850366 20.347300 -4.058899 4.158686 -4.016172 3.615819 7.171769 -11.583561 -3.135088 -2.445164 -1.550809 7.489830 6.748732 5.722899 1.692772 -4.682072 -9.186348 -1.133977 0.170841 8.347198 2.751784 2.985680 9.892450 5.105034 -4.631354 14.256034 1.793779 1.381471 -2.176366 -8.545528 0.784800 17.672123 0.294154 3.450832 0.470176 -20.663698 -2.633042 3.510161 -48.939777 -9.743175 14.529577 -1.949993 -34.117836 13.979043 -2.956781 -2.127768 3.154513 -17.063629 -9.919346 -11.220985 22.531427 5.974993 3.864865 38.639160 7.382355 4.839483 1.956836 35.061299 8.493965 0.073535 4.683747 13.490983 21.219509 10.005593 -6.196273 
-0.151998 -0.050431 0.255500 170.142192 40.814144 -18.834339 9.400490 1.282121 -4.708881 -5.990144 -15.299765 16.674681 -2.656484 5.153066 -6.337984 2.694546 7.219699 -10.636819 -3.323627 -1.682322 -1.915404 7.224535 8.351988 5.849876 1.647850 -3.787889 -8.685477 0.378969 -0.061949 8.292999 2.822970 2.527224 9.281798 5.181990 -4.367050 14.446873 1.664173 1.432588 -2.204016 -8.179333 0.781891 17.411390 -0.151353 3.870889 -0.308563 -21.209840 -2.916232 3.076199 -47.939642 -8.593140 14.779915 -2.092813 -33.213394 13.619848 -2.953533 -1.675454 3.771728 -16.942160 -10.135443 -11.499543 22.838285 6.171469 3.817519 36.983797 6.971711 5.344747 2.920801 33.422775 9.556631 0.230188 4.260255 13.858479 21.258322 9.850756 -6.685844 
-0.173247 -0.049756 0.233509 170.479477 38.702469 -17.908769 7.720979 2.275941 -1.818259 -4.838894 -14.162196 10.586412 -1.156925 6.008393 -6.770354 1.719466 7.448211 -9.008448 -4.343522 -1.038378 -3.790285 6.063242 8.963168 6.886515 2.511667 -3.278483 -7.425329 0.819695 -0.278508 7.807974 2.199929 1.682676 8.835725 5.177240 -4.559458 13.982431 1.518227 1.047258 -2.245329 -8.030588 0.302358 16.917302 -0.155843 3.977931 -0.812167 -21.330260 -3.648010 2.537298 -47.293076 -8.029070 15.573213 -2.644195 -31.395981 13.991965 -3.319360 -1.414405 5.144182 -16.410265 -10.346838 -12.041607 23.023097 5.801952 3.136064 36.175817 6.185402 6.273882 2.577732 33.733949 9.501368 0.091560 3.962055 13.920815 21.185700 9.736143 -7.685732 
-0.195521 -0.047386 0.208860 171.681821 35.843016 -17.000802 5.680961 3.066696 0.368968 -4.854744 -12.887051 6.724829 0.289756 6.871024 -6.754572 0.765171 7.275612 -8.306124 -5.925627 -0.552713 -5.929645 5.037393 10.009299 8.778018 4.185536 -2.689821 -6.080918 -0.343161 0.368376 6.546896 1.800347 1.288659 8.893203 4.518876 -4.199910 13.442758 0.966520 1.127259 -2.025501 -8.161958 0.020089 16.191810 0.055033 4.271725 -1.170936 -20.894666 -4.004490 1.830486 -46.503801 -7.324791 15.977117 -3.070337 -32.395284 14.852037 -3.753862 -1.369580 6.683217 -16.033930 -10.648853 -12.848494 22.506765 5.639359 2.943841 36.797103 5.569319 7.264561 2.895005 34.701719 10.066570 0.441870 3.681571 13.835378 20.829436 9.844896 -8.646814 
-0.214485 -0.041641 0.185174 172.916736 31.368069 -17.030158 3.905772 3.852283 2.959324 -4.780423 -11.375477 3.893182 1.996072 8.463789 -7.372315 0.100470 7.325152 -7.531609 -7.032045 0.466184 -8.459540 4.751909 11.722406 12.108792 5.533522 -1.475899 -5.040538 -0.875474 0.770434 5.150797 1.393167 1.039386 9.945507 3.798003 -3.312699 13.235689 0.580408 1.456417 -1.573769 -8.117048 0.064559 15.496709 -0.171221 5.284149 -2.123916 -20.969158 -4.213428 0.797833 -45.500998 -5.699525 15.851766 -2.182380 -34.752441 13.367728 -3.361710 -0.615325 7.617264 -15.961527 -11.287405 -13.715112 22.089116 5.935906 3.237378 35.468389 4.937262 8.690037 6.707748 39.565981 15.479833 0.524996 3.708127 15.109656 20.630533 9.932431 -9.816936 
-0.230085 -0.036640 0.165845 173.544626 27.971737 -16.998024 2.919104 4.544795 5.046322 -4.911892 -9.861260 0.412004 2.995057 9.023211 -7.315117 -0.256009 8.054433 -5.654706 -7.998560 1.046747 -9.643390 4.562184 12.321393 12.229954 6.370024 0.336414 -3.551036 -0.112514 -0.657825 4.327841 0.914076 0.389475 10.052730 2.978097 -3.428765 13.072689 0.164576 1.050607 -1.199757 -7.906278 0.641395 15.956361 -0.101730 6.766906 -3.634715 -21.472457 -5.139393 0.207997 -43.438820 -3.705430 16.229505 -2.241433 -34.099556 12.564226 -3.651807 -0.996161 8.539371 -15.106869 -11.071390 -14.234320 20.745013 5.411162 2.952949 32.922069 2.002898 10.658889 18.897155 51.753034 30.438571 1.146074 5.568391 16.112979 20.448142 9.206414 -10.741320 
-0.240975 -0.035595 0.153109 173.497092 25.323933 -16.424743 2.585377 4.658136 5.441687 -4.688114 -8.798186 -1.771267 2.659081 9.196020 -6.899144 0.263468 8.928890 -3.132001 -8.325285 -0.525915 -9.493304 3.746723 8.395491 9.501584 6.270271 -0.872205 -3.149559 1.065790 -2.907957 4.601766 0.688521 0.071468 9.045544 2.085119 -3.919894 12.123903 0.019076 0.381078 -0.409259 -7.672915 1.316937 17.102628 0.451957 8.064422 -5.981994 -21.570844 -5.758718 -0.322573 -42.655046 -2.177841 17.036134 -1.994443 -30.872870 10.508616 -3.641455 -1.984101 7.885202 -14.660128 -10.502145 -14.723962 17.778103 4.475813 2.265882 30.321445 -3.134831 12.630529 46.738197 63.163451 59.489231 1.951461 8.644081 12.433265 20.820867 8.402094 -11.099951 
-0.246585 -0.035283 0.146175 174.057551 21.695914 -15.785272 2.339878 5.226010 5.526047 -4.524831 -7.680197 -2.501302 2.092080 9.897694 -7.071400 1.811554 9.532125 -0.793370 -8.472949 -4.305460 -9.336728 2.923153 0.456279 11.044770 5.511687 -4.446895 -4.171255 1.683651 -4.972102 4.688264 0.215083 0.392421 8.073950 0.943828 -3.595088 11.181939 -0.174900 0.081032 0.120930 -6.249371 2.201468 17.981227 0.948291 8.858643 -8.433251 -21.724113 -5.052418 -1.472571 -41.757160 -0.698858 18.141595 -1.642260 -29.356704 8.967119 -6.188088 -3.155993 8.575971 -15.006031 -10.313852 -15.761508 15.235958 4.035119 1.537303 28.019651 -7.686369 14.935569 83.658714 64.803428 96.240683 8.051971 11.742248 6.142129 20.718284 7.797736 -11.001594 
-0.249481 -0.035442 0.143517 173.977771 19.068305 -15.808592 2.752903 5.772520 5.896136 -4.467676 -6.871204 -2.843868 1.992107 10.777769 -7.125717 2.810640 9.600764 -1.170094 -8.624159 -3.452937 -7.201032 3.375172 1.744697 15.164813 5.820040 -3.292028 -6.013811 0.693725 -5.457989 4.051669 0.781010 0.059678 7.281218 0.173778 -3.567120 9.690467 -0.477102 0.023813 0.755605 -5.499901 1.871831 17.758526 0.980372 10.345317 -8.600929 -21.936295 -4.870691 -2.207678 -41.899777 0.885324 18.255859 -1.126024 -28.912733 8.144192 -8.877058 -2.010790 9.191329 -15.756562 -11.133695 -16.364554 13.050135 3.818003 0.909210 26.632807 -9.800960 16.979137 104.606578 59.852141 116.877628 13.628186 12.963599 1.815151 20.933653 7.634012 -11.046422 
